# Blender v2.91.0 OBJ File: 'Pesadilla_mod_V8_LowPoly.blend'
# www.blender.org
mtllib Rib2_low.mtl
o Rib2_low_mesh.001
v -0.150785 1.124190 -0.446025
v -0.147347 1.118420 -0.445856
v -0.147783 1.127896 -0.440869
v -0.075322 1.122575 -0.238890
v -0.068963 1.126365 -0.238513
v -0.056396 1.105720 -0.243991
v -0.063492 1.101465 -0.244266
v -0.074311 1.096126 -0.248419
v -0.056037 1.079638 -0.231157
v -0.072052 1.073278 -0.237035
v -0.105248 1.064022 -0.259270
v -0.117880 1.053285 -0.242059
v -0.188836 1.061775 -0.314305
v -0.195383 1.088995 -0.308251
v -0.198474 1.097761 -0.356311
v -0.162611 1.127037 -0.428852
v -0.151861 1.131431 -0.442965
v -0.156179 1.123001 -0.426833
v -0.153392 1.115897 -0.428482
v -0.145909 1.122632 -0.441990
v -0.155798 1.109851 -0.432808
v -0.162042 1.108394 -0.437275
v -0.151275 1.117855 -0.450146
v -0.167830 1.111389 -0.439001
v -0.170717 1.122949 -0.435687
v -0.157195 1.129193 -0.449638
v -0.193669 1.076547 -0.362184
v -0.179275 1.071253 -0.364542
v -0.171423 1.056116 -0.321153
v -0.154646 1.065229 -0.325747
v -0.103620 1.086523 -0.267693
v -0.113996 1.107233 -0.262296
v -0.085564 1.117929 -0.242834
v -0.100215 1.126368 -0.224245
v -0.086311 1.133309 -0.218530
v -0.074998 1.140791 -0.217468
v -0.086648 1.118233 -0.183013
v -0.064323 1.133459 -0.180456
v -0.067351 1.081957 -0.182695
v -0.039599 1.095698 -0.179576
v -0.057623 1.071272 -0.205717
v -0.034696 1.081939 -0.205001
v -0.041591 1.086340 -0.230274
v -0.079346 1.063405 -0.214292
v -0.092423 1.072364 -0.194001
v -0.134198 1.060477 -0.226071
v -0.173717 1.106723 -0.313347
v -0.180017 1.110644 -0.354212
v -0.165446 1.105394 -0.356581
v -0.165001 1.077412 -0.363914
v -0.148415 1.083820 -0.325334
v -0.130354 1.114415 -0.246402
v -0.107913 1.107185 -0.193180
v -0.145440 1.093279 -0.223371
v -0.156255 1.100928 -0.320234
v -0.159212 1.091563 -0.360610
v -0.154124 1.121902 -0.450710
v -0.054366 1.110045 -0.213611
v 0.150785 1.124190 -0.446025
v 0.147347 1.118420 -0.445856
v 0.147783 1.127896 -0.440869
v 0.075322 1.122575 -0.238890
v 0.068963 1.126365 -0.238513
v 0.056396 1.105720 -0.243991
v 0.063492 1.101465 -0.244266
v 0.074311 1.096126 -0.248419
v 0.056037 1.079638 -0.231157
v 0.072052 1.073278 -0.237035
v 0.105248 1.064022 -0.259270
v 0.117880 1.053285 -0.242059
v 0.188836 1.061775 -0.314305
v 0.195383 1.088995 -0.308251
v 0.198474 1.097761 -0.356311
v 0.162611 1.127037 -0.428852
v 0.151861 1.131431 -0.442965
v 0.156179 1.123001 -0.426833
v 0.153392 1.115897 -0.428482
v 0.145909 1.122632 -0.441990
v 0.155798 1.109851 -0.432808
v 0.162042 1.108394 -0.437275
v 0.151275 1.117855 -0.450146
v 0.167830 1.111389 -0.439001
v 0.170717 1.122949 -0.435687
v 0.157195 1.129193 -0.449638
v 0.193669 1.076547 -0.362184
v 0.179275 1.071253 -0.364542
v 0.171423 1.056116 -0.321153
v 0.154646 1.065229 -0.325747
v 0.103620 1.086523 -0.267693
v 0.113996 1.107233 -0.262296
v 0.085564 1.117929 -0.242834
v 0.100215 1.126368 -0.224245
v 0.086311 1.133309 -0.218530
v 0.074998 1.140791 -0.217468
v 0.086648 1.118233 -0.183013
v 0.064323 1.133459 -0.180456
v 0.067351 1.081957 -0.182695
v 0.039599 1.095698 -0.179576
v 0.057623 1.071272 -0.205717
v 0.034696 1.081939 -0.205001
v 0.041591 1.086340 -0.230274
v 0.079346 1.063405 -0.214292
v 0.092423 1.072364 -0.194001
v 0.134198 1.060477 -0.226071
v 0.173717 1.106723 -0.313347
v 0.180017 1.110644 -0.354212
v 0.165446 1.105394 -0.356581
v 0.165001 1.077412 -0.363914
v 0.148415 1.083820 -0.325334
v 0.130354 1.114415 -0.246402
v 0.107913 1.107185 -0.193180
v 0.145440 1.093279 -0.223371
v 0.156255 1.100928 -0.320234
v 0.159212 1.091563 -0.360610
v 0.154124 1.121902 -0.450710
v 0.054366 1.110045 -0.213611
vt 0.696517 0.532362
vt 0.684121 0.560237
vt 0.626654 0.538620
vt 0.636373 0.507972
vt 0.896063 0.026940
vt 0.784626 0.144782
vt 0.759850 0.123860
vt 0.889262 0.012194
vt 0.564260 0.525026
vt 0.576481 0.483991
vt 0.520262 0.463792
vt 0.567183 0.368151
vt 0.617120 0.391963
vt 0.980561 0.055852
vt 0.994227 0.213987
vt 0.963959 0.216081
vt 0.968170 0.058876
vt 0.673234 0.417119
vt 0.731341 0.440967
vt 0.723980 0.217833
vt 0.691501 0.188808
vt 0.997991 0.309942
vt 0.982441 0.509566
vt 0.931919 0.504804
vt 0.959143 0.306810
vt 0.862762 0.488091
vt 0.905716 0.297838
vt 0.762347 0.245568
vt 0.844997 0.183349
vt 0.917242 0.050645
vt 0.930097 0.056333
vt 0.876162 0.197742
vt 0.813313 0.165030
vt 0.905342 0.040576
vt 0.948388 0.058980
vt 0.945588 0.035442
vt 0.955103 0.028358
vt 0.920276 0.210851
vt 0.720291 0.617874
vt 0.739468 0.591071
vt 0.816934 0.636242
vt 0.784118 0.689815
vt 0.937808 0.034074
vt 0.932618 0.030402
vt 0.836285 0.585519
vt 0.756058 0.554706
vt 0.788387 0.463921
vt 0.928666 0.024332
vt 0.926378 0.015317
vt 0.848693 0.285025
vt 0.962696 0.022003
vt 0.896614 0.668371
vt 0.880842 0.736258
vt 0.957809 0.677094
vt 0.953419 0.738906
vt 0.805067 0.269154
vt 0.503351 0.514792
vt 0.561005 0.561653
vt 0.502009 0.571781
vt 0.910993 0.609763
vt 0.967453 0.618590
vt 0.675788 0.575918
vt 0.623235 0.557214
vt 0.928615 0.002009
vt 0.942782 0.018738
vt 0.996269 0.856583
vt 0.953664 0.900771
vt 0.928026 0.822747
vt 0.888958 0.906266
vt 0.825037 0.833148
vt 0.997991 0.787301
vt 0.196517 0.375914
vt 0.136373 0.400303
vt 0.126654 0.369655
vt 0.184121 0.348039
vt 0.396063 0.881335
vt 0.389262 0.896082
vt 0.259850 0.784416
vt 0.284626 0.763494
vt 0.076481 0.424284
vt 0.064260 0.383250
vt 0.020262 0.444483
vt 0.117120 0.516313
vt 0.067183 0.540125
vt 0.480560 0.852424
vt 0.468169 0.849400
vt 0.463959 0.692195
vt 0.494227 0.694288
vt 0.231341 0.467308
vt 0.173234 0.491157
vt 0.223980 0.690443
vt 0.191501 0.719468
vt 0.497991 0.598334
vt 0.459143 0.601466
vt 0.431919 0.403471
vt 0.482441 0.398709
vt 0.405716 0.610438
vt 0.362762 0.420185
vt 0.262347 0.662707
vt 0.344997 0.724927
vt 0.376162 0.710533
vt 0.430097 0.851943
vt 0.417242 0.857631
vt 0.405342 0.867699
vt 0.313313 0.743245
vt 0.455103 0.879917
vt 0.445587 0.872833
vt 0.448387 0.849296
vt 0.420275 0.697424
vt 0.220291 0.290402
vt 0.284118 0.218460
vt 0.316934 0.272034
vt 0.239468 0.317204
vt 0.437808 0.874201
vt 0.432618 0.877874
vt 0.336285 0.322756
vt 0.288387 0.444355
vt 0.256058 0.353569
vt 0.428666 0.883944
vt 0.426378 0.892959
vt 0.348693 0.623251
vt 0.462696 0.886273
vt 0.380842 0.172017
vt 0.396614 0.239904
vt 0.453419 0.169370
vt 0.457809 0.231181
vt 0.305067 0.639122
vt 0.003351 0.393483
vt 0.002009 0.336495
vt 0.061005 0.346622
vt 0.410992 0.298512
vt 0.467453 0.289686
vt 0.175787 0.332358
vt 0.123235 0.351062
vt 0.428615 0.906267
vt 0.442782 0.889538
vt 0.496270 0.051693
vt 0.428026 0.085528
vt 0.453664 0.007504
vt 0.388958 0.002009
vt 0.325037 0.075128
vt 0.497991 0.120974
vn 0.2980 0.3794 -0.8759
vn 0.0573 0.2763 -0.9594
vn 0.0612 0.2781 -0.9586
vn 0.3011 0.3805 -0.8744
vn 0.4092 -0.8553 -0.3179
vn 0.3867 -0.8510 -0.3553
vn 0.3849 -0.8512 -0.3569
vn 0.4103 -0.8560 -0.3146
vn 0.3586 -0.3895 -0.8483
vn 0.3600 -0.3890 -0.8480
vn 0.5246 -0.3338 -0.7832
vn 0.5234 -0.3340 -0.7839
vn 0.4175 -0.8737 -0.2498
vn 0.3952 -0.8786 -0.2681
vn 0.3933 -0.8787 -0.2706
vn 0.4170 -0.8739 -0.2497
vn -0.3188 -0.7121 -0.6255
vn -0.3643 -0.8555 -0.3681
vn -0.3658 -0.8597 -0.3564
vn -0.3180 -0.7093 -0.6291
vn 0.5497 0.4565 -0.6996
vn 0.5506 0.4567 -0.6988
vn 0.3751 -0.8669 -0.3282
vn 0.3749 -0.8660 -0.3308
vn -0.3252 -0.9448 -0.0399
vn -0.1528 -0.9516 0.2668
vn -0.1447 -0.9505 0.2751
vn -0.3278 -0.9435 -0.0487
vn -0.9198 -0.2829 0.2720
vn -0.6867 -0.2896 0.6667
vn -0.6914 -0.2906 0.6615
vn -0.9178 -0.2838 0.2776
vn 0.8415 -0.2784 -0.4631
vn 0.8381 -0.2776 -0.4695
vn 0.6875 -0.2902 -0.6657
vn 0.6793 -0.2927 -0.6729
vn 0.3672 0.9163 0.1601
vn 0.3825 0.8388 0.3875
vn 0.3815 0.8355 0.3955
vn 0.3639 0.9198 0.1466
vn 0.9144 0.4047 0.0099
vn 0.9148 0.4037 0.0133
vn 0.8858 0.2706 0.3770
vn 0.8859 0.2707 0.3766
vn -0.8305 -0.0832 -0.5507
vn -0.8247 -0.0814 -0.5597
vn -0.6720 -0.0404 -0.7394
vn -0.9694 -0.1803 -0.1664
vn -0.9696 -0.1808 -0.1647
vn -0.5539 0.7700 0.3168
vn -0.5489 0.7705 0.3240
vn -0.5490 0.7705 0.3239
vn -0.4912 0.8706 0.0278
vn -0.4146 0.9099 -0.0136
vn -0.4841 0.8747 0.0239
vn 0.9227 -0.3264 -0.2053
vn 0.8975 -0.4320 0.0892
vn 0.9009 -0.4268 0.0788
vn 0.9242 -0.3293 -0.1934
vn 0.3649 0.7815 0.5060
vn -0.5477 0.7673 0.3336
vn -0.5480 0.7670 0.3338
vn -0.5656 0.7620 0.3153
vn -0.5640 0.7622 0.3177
vn 0.8157 0.1847 0.5482
vn 0.8418 -0.4922 0.2214
vn -0.5844 0.7755 0.2390
vn -0.5847 0.7764 0.2351
vn -0.2798 -0.5896 -0.7577
vn -0.0909 -0.0379 0.9951
vn -0.2181 -0.1065 0.9701
vn -0.2157 -0.1052 0.9708
vn -0.5737 0.8095 0.1251
vn -0.5714 0.8121 0.1181
vn 0.2413 -0.8386 0.4884
vn 0.2390 -0.8395 0.4879
vn 0.3436 -0.7926 0.5037
vn 0.7965 0.4766 -0.3720
vn 0.7951 0.4768 -0.3747
vn 0.4200 -0.8704 -0.2570
vn 0.4201 -0.8704 -0.2569
vn 0.4159 -0.8706 -0.2627
vn 0.0519 -0.9022 0.4283
vn 0.0468 -0.9037 0.4257
vn -0.1129 0.8658 -0.4875
vn -0.1104 0.8670 -0.4860
vn -0.2957 0.7704 -0.5649
vn -0.2966 0.7698 -0.5651
vn -0.3993 0.7014 -0.5904
vn 0.0857 0.9353 -0.3433
vn 0.0768 0.9333 -0.3507
vn -0.4484 -0.2180 0.8668
vn -0.4447 -0.2165 0.8691
vn 0.2682 0.9570 -0.1108
vn 0.2702 0.9569 -0.1066
vn 0.2619 -0.4232 -0.8674
vn -0.0773 0.2083 -0.9750
vn 0.4191 -0.8610 -0.2881
vn 0.6594 0.3737 -0.6524
vn 0.6594 0.3736 -0.6524
vn 0.6593 0.3736 -0.6525
vn 0.6594 0.3735 -0.6525
vn 0.6595 0.3735 -0.6523
vn 0.8307 0.5408 -0.1325
vn -0.2980 0.3794 -0.8759
vn -0.3011 0.3805 -0.8744
vn -0.0612 0.2781 -0.9586
vn -0.0573 0.2763 -0.9594
vn -0.4092 -0.8553 -0.3179
vn -0.4103 -0.8560 -0.3146
vn -0.3849 -0.8512 -0.3569
vn -0.3867 -0.8510 -0.3553
vn -0.3586 -0.3895 -0.8483
vn -0.5234 -0.3340 -0.7839
vn -0.5246 -0.3338 -0.7832
vn -0.3600 -0.3890 -0.8480
vn -0.4175 -0.8737 -0.2498
vn -0.4170 -0.8739 -0.2497
vn -0.3933 -0.8787 -0.2706
vn -0.3952 -0.8786 -0.2681
vn 0.3188 -0.7121 -0.6255
vn 0.3180 -0.7093 -0.6291
vn 0.3658 -0.8597 -0.3564
vn 0.3643 -0.8555 -0.3681
vn -0.5506 0.4567 -0.6988
vn -0.5497 0.4565 -0.6996
vn -0.3751 -0.8669 -0.3282
vn -0.3749 -0.8660 -0.3308
vn 0.3252 -0.9448 -0.0399
vn 0.3278 -0.9435 -0.0487
vn 0.1447 -0.9505 0.2751
vn 0.1528 -0.9516 0.2668
vn 0.9198 -0.2829 0.2720
vn 0.9178 -0.2838 0.2776
vn 0.6914 -0.2906 0.6615
vn 0.6867 -0.2896 0.6667
vn -0.8415 -0.2784 -0.4631
vn -0.6793 -0.2927 -0.6730
vn -0.6875 -0.2902 -0.6657
vn -0.8381 -0.2776 -0.4695
vn -0.3672 0.9163 0.1601
vn -0.3639 0.9198 0.1466
vn -0.3815 0.8355 0.3955
vn -0.3825 0.8388 0.3875
vn -0.9144 0.4047 0.0099
vn -0.8859 0.2707 0.3766
vn -0.8858 0.2706 0.3770
vn -0.9148 0.4037 0.0133
vn 0.8305 -0.0832 -0.5507
vn 0.6720 -0.0404 -0.7394
vn 0.8247 -0.0814 -0.5597
vn 0.9694 -0.1803 -0.1664
vn 0.9696 -0.1808 -0.1647
vn 0.5539 0.7700 0.3168
vn 0.5490 0.7705 0.3239
vn 0.5489 0.7705 0.3240
vn 0.4912 0.8706 0.0278
vn 0.4841 0.8747 0.0239
vn 0.4146 0.9099 -0.0136
vn -0.9227 -0.3264 -0.2053
vn -0.9242 -0.3293 -0.1934
vn -0.9009 -0.4268 0.0788
vn -0.8975 -0.4320 0.0892
vn -0.3649 0.7815 0.5060
vn 0.5477 0.7673 0.3336
vn 0.5640 0.7622 0.3177
vn 0.5656 0.7620 0.3153
vn 0.5480 0.7670 0.3338
vn -0.8157 0.1847 0.5482
vn -0.8418 -0.4922 0.2214
vn 0.5847 0.7764 0.2351
vn 0.5844 0.7755 0.2390
vn 0.2798 -0.5896 -0.7577
vn 0.0909 -0.0379 0.9951
vn 0.2157 -0.1052 0.9708
vn 0.2181 -0.1065 0.9701
vn 0.5737 0.8095 0.1251
vn 0.5714 0.8121 0.1181
vn -0.2413 -0.8386 0.4884
vn -0.3436 -0.7926 0.5037
vn -0.2390 -0.8395 0.4879
vn -0.7951 0.4768 -0.3747
vn -0.7965 0.4766 -0.3720
vn -0.4200 -0.8704 -0.2570
vn -0.4159 -0.8706 -0.2627
vn -0.4201 -0.8704 -0.2569
vn -0.0519 -0.9022 0.4283
vn -0.0468 -0.9037 0.4257
vn 0.1129 0.8658 -0.4875
vn 0.2966 0.7698 -0.5651
vn 0.2957 0.7704 -0.5649
vn 0.1104 0.8670 -0.4860
vn 0.3993 0.7014 -0.5904
vn -0.0857 0.9353 -0.3433
vn -0.0768 0.9333 -0.3507
vn 0.4484 -0.2180 0.8668
vn 0.4447 -0.2165 0.8691
vn -0.2702 0.9569 -0.1066
vn -0.2682 0.9570 -0.1108
vn -0.2619 -0.4232 -0.8674
vn 0.0773 0.2083 -0.9750
vn -0.4191 -0.8610 -0.2881
vn -0.6594 0.3737 -0.6524
vn -0.6594 0.3736 -0.6524
vn -0.6593 0.3736 -0.6525
vn -0.6594 0.3735 -0.6525
vn -0.6595 0.3735 -0.6523
vn -0.8307 0.5408 -0.1325
usemtl None
s 1
f 33/1/1 4/2/2 7/3/3 8/4/4
f 21/5/5 50/6/6 28/7/7 22/8/8
f 7/3/9 9/9/10 10/10/11 8/4/12
f 44/11/13 12/12/14 11/13/15 10/10/16
f 22/14/17 28/15/18 27/16/19 24/17/20
f 8/4/4 31/18/21 32/19/22 33/1/1
f 30/20/23 11/13/15 12/12/14 29/21/24
f 29/22/25 12/23/26 46/24/27 13/25/28
f 13/25/29 46/24/30 54/26/31 14/27/32
f 30/20/33 51/28/34 31/18/35 11/13/36
f 49/29/37 18/30/38 16/31/39 48/32/40
f 13/25/28 27/16/19 28/15/18 29/22/25
f 49/29/41 56/33/42 19/34/43 18/30/44
f 24/17/45 25/35/46 26/36/47 57/37/47
f 15/38/48 25/35/46 24/17/45 27/16/49
f 36/39/50 35/40/51 37/41/52 38/42/50
f 16/31/53 17/43/54 26/36/54 25/35/55
f 50/6/56 21/5/57 19/34/58 56/33/59
f 16/31/39 18/30/38 3/44/60 17/43/60
f 53/45/61 34/46/62 52/47/63 54/26/64
f 18/30/44 19/34/43 20/48/65 3/44/65
f 19/34/58 21/5/57 2/49/66 20/48/66
f 52/47/63 47/50/67 14/27/68 54/26/64
f 22/14/17 24/17/20 57/37/69 23/51/69
f 51/28/34 30/20/33 50/6/56 56/33/59
f 14/27/32 15/38/48 27/16/49 13/25/29
f 38/42/70 37/41/71 39/52/72 40/53/70
f 15/38/73 14/27/68 47/50/67 48/32/74
f 39/52/75 41/54/76 42/55/77 40/53/77
f 32/19/22 31/18/21 51/28/78 55/56/79
f 41/57/80 9/9/81 43/58/82 42/59/82
f 45/60/83 46/24/27 12/23/26 44/61/84
f 33/1/85 34/46/86 35/40/87 4/2/88
f 36/39/89 5/62/89 4/2/88 35/40/87
f 51/28/78 56/33/42 49/29/41 55/56/79
f 45/60/83 44/61/84 41/54/76 39/52/75
f 41/57/80 44/11/13 10/10/16 9/9/81
f 32/19/90 52/47/91 34/46/86 33/1/85
f 53/45/92 45/60/93 39/52/72 37/41/71
f 28/7/7 50/6/6 30/20/23 29/21/24
f 35/40/51 34/46/62 53/45/61 37/41/52
f 53/45/92 54/26/31 46/24/30 45/60/93
f 32/19/90 55/56/94 47/50/95 52/47/91
f 47/50/95 55/56/94 49/29/37 48/32/40
f 43/58/96 9/9/10 7/3/9 6/63/96
f 31/18/35 8/4/12 10/10/11 11/13/36
f 5/62/97 6/63/97 7/3/3 4/2/2
f 2/49/98 21/5/5 22/8/8 23/64/98
f 26/36/99 17/43/100 1/65/100
f 20/48/99 2/49/101 1/65/100
f 23/51/102 57/37/103 1/65/100
f 17/43/100 3/44/99 1/65/100
f 3/44/99 20/48/99 1/65/100
f 57/37/103 26/36/99 1/65/100
f 2/49/101 23/64/102 1/65/100
f 6/66/104 5/67/104 58/68/104
f 36/69/104 38/70/104 58/68/104
f 42/55/104 43/71/104 58/68/104
f 38/70/104 40/53/104 58/68/104
f 43/71/104 6/66/104 58/68/104
f 5/67/104 36/69/104 58/68/104
f 40/53/104 42/55/104 58/68/104
f 48/32/74 16/31/53 25/35/55 15/38/73
f 91/72/105 66/73/106 65/74/107 62/75/108
f 79/76/109 80/77/110 86/78/111 108/79/112
f 65/74/113 66/73/114 68/80/115 67/81/116
f 102/82/117 68/80/118 69/83/119 70/84/120
f 80/85/121 82/86/122 85/87/123 86/88/124
f 66/73/106 91/72/105 90/89/125 89/90/126
f 88/91/127 87/92/128 70/84/120 69/83/119
f 87/93/129 71/94/130 104/95/131 70/96/132
f 71/94/133 72/97/134 112/98/135 104/95/136
f 88/91/137 69/83/138 89/90/139 109/99/140
f 107/100/141 106/101/142 74/102/143 76/103/144
f 71/94/130 87/93/129 86/88/124 85/87/123
f 107/100/145 76/103/146 77/104/147 114/105/148
f 82/86/149 115/106/150 84/107/150 83/108/151
f 73/109/152 85/87/153 82/86/149 83/108/151
f 94/110/154 96/111/154 95/112/155 93/113/156
f 74/102/157 83/108/158 84/107/159 75/114/159
f 108/79/160 114/105/161 77/104/162 79/76/163
f 74/102/143 75/114/164 61/115/164 76/103/144
f 111/116/165 112/98/166 110/117/167 92/118/168
f 76/103/146 61/115/169 78/119/169 77/104/147
f 77/104/162 78/119/170 60/120/170 79/76/163
f 110/117/167 112/98/166 72/97/171 105/121/172
f 80/85/121 81/122/173 115/106/173 82/86/122
f 109/99/140 114/105/161 108/79/160 88/91/137
f 72/97/134 71/94/133 85/87/153 73/109/152
f 96/111/174 98/123/174 97/124/175 95/112/176
f 73/109/177 106/101/178 105/121/172 72/97/171
f 97/124/179 98/123/180 100/125/180 99/126/181
f 90/89/125 113/127/182 109/99/183 89/90/126
f 99/128/184 100/129/185 101/130/185 67/81/186
f 103/131/187 102/132/188 70/96/132 104/95/131
f 91/72/189 62/75/190 93/113/191 92/118/192
f 94/110/193 93/113/191 62/75/190 63/133/193
f 109/99/183 113/127/182 107/100/145 114/105/148
f 103/131/187 97/124/179 99/126/181 102/132/188
f 99/128/184 67/81/186 68/80/118 102/82/117
f 90/89/194 91/72/189 92/118/192 110/117/195
f 111/116/196 95/112/176 97/124/175 103/131/197
f 86/78/111 87/92/128 88/91/127 108/79/112
f 93/113/156 95/112/155 111/116/165 92/118/168
f 111/116/196 103/131/197 104/95/136 112/98/135
f 90/89/194 110/117/195 105/121/198 113/127/199
f 105/121/198 106/101/142 107/100/141 113/127/199
f 101/130/200 64/134/200 65/74/113 67/81/116
f 89/90/139 69/83/138 68/80/115 66/73/114
f 63/133/201 62/75/108 65/74/107 64/134/201
f 60/120/202 81/135/202 80/77/110 79/76/109
f 84/107/203 59/136/204 75/114/204
f 78/119/203 59/136/204 60/120/205
f 81/122/206 59/136/204 115/106/207
f 75/114/204 59/136/204 61/115/203
f 61/115/203 59/136/204 78/119/203
f 115/106/207 59/136/204 84/107/203
f 60/120/205 59/136/204 81/135/206
f 64/137/208 116/138/208 63/139/208
f 94/140/208 116/138/208 96/141/208
f 100/125/208 116/138/208 101/142/208
f 96/141/208 116/138/208 98/123/208
f 101/142/208 116/138/208 64/137/208
f 63/139/208 116/138/208 94/140/208
f 98/123/208 116/138/208 100/125/208
f 106/101/178 73/109/177 83/108/158 74/102/157
