# Blender v2.91.0 OBJ File: 'Pesadilla_mod_V8_LowPoly.blend'
# www.blender.org
mtllib Rib1_low.mtl
o Rib1_low_mesh
v -0.170618 1.300267 -0.454173
v -0.173126 1.293528 -0.464679
v -0.170904 1.297053 -0.459898
v -0.155513 1.227047 -0.247538
v -0.131772 1.222655 -0.218109
v -0.134506 1.216834 -0.256852
v -0.151782 1.205676 -0.276373
v -0.170092 1.215512 -0.267409
v -0.192314 1.206358 -0.252001
v -0.172724 1.223671 -0.221049
v -0.175752 1.208658 -0.195695
v -0.142767 1.178454 -0.188638
v -0.113000 1.177730 -0.223843
v -0.115378 1.194947 -0.247372
v -0.142121 1.179300 -0.276437
v -0.170528 1.206684 -0.309913
v -0.186328 1.215332 -0.302004
v -0.209162 1.207185 -0.293810
v -0.203778 1.184549 -0.239520
v -0.182699 1.151329 -0.243194
v -0.150030 1.155979 -0.265359
v -0.176386 1.161515 -0.314561
v -0.164753 1.183042 -0.316031
v -0.181443 1.197181 -0.356272
v -0.185330 1.216993 -0.347258
v -0.199319 1.224789 -0.340524
v -0.221003 1.218991 -0.337338
v -0.223900 1.187447 -0.290807
v -0.208929 1.157246 -0.301294
v -0.193591 1.179353 -0.360360
v -0.191409 1.219004 -0.393597
v -0.194167 1.234042 -0.383774
v -0.205650 1.240993 -0.379134
v -0.224074 1.238632 -0.380637
v -0.237404 1.228207 -0.387379
v -0.236208 1.203113 -0.339901
v -0.224472 1.176966 -0.353444
v -0.202084 1.206823 -0.401536
v -0.197441 1.241455 -0.435824
v -0.189728 1.247972 -0.426538
v -0.191896 1.258305 -0.417554
v -0.200396 1.264519 -0.415008
v -0.213752 1.265503 -0.419403
v -0.223320 1.260498 -0.428014
v -0.228221 1.207616 -0.400893
v -0.216470 1.245742 -0.439353
v -0.167940 1.296502 -0.454717
v -0.166646 1.291682 -0.460117
v -0.168767 1.290978 -0.465997
v -0.178035 1.299083 -0.461166
v -0.175086 1.301220 -0.456948
v 0.170618 1.300267 -0.454173
v 0.173126 1.293528 -0.464679
v 0.170904 1.297053 -0.459898
v 0.155513 1.227047 -0.247538
v 0.131772 1.222655 -0.218109
v 0.134506 1.216834 -0.256852
v 0.151782 1.205676 -0.276373
v 0.170092 1.215512 -0.267409
v 0.192314 1.206358 -0.252001
v 0.172724 1.223671 -0.221049
v 0.175752 1.208658 -0.195695
v 0.142767 1.178454 -0.188638
v 0.113000 1.177730 -0.223843
v 0.115378 1.194947 -0.247372
v 0.142121 1.179300 -0.276437
v 0.170528 1.206684 -0.309913
v 0.186328 1.215332 -0.302004
v 0.209162 1.207185 -0.293810
v 0.203778 1.184549 -0.239520
v 0.182699 1.151329 -0.243194
v 0.150030 1.155979 -0.265359
v 0.176386 1.161515 -0.314561
v 0.164753 1.183042 -0.316031
v 0.181443 1.197181 -0.356272
v 0.185330 1.216993 -0.347258
v 0.199319 1.224789 -0.340524
v 0.221003 1.218991 -0.337338
v 0.223900 1.187447 -0.290807
v 0.208929 1.157246 -0.301294
v 0.193591 1.179353 -0.360360
v 0.191409 1.219004 -0.393597
v 0.194167 1.234042 -0.383774
v 0.205650 1.240993 -0.379134
v 0.224074 1.238632 -0.380637
v 0.237404 1.228207 -0.387379
v 0.236208 1.203113 -0.339901
v 0.224472 1.176966 -0.353444
v 0.202084 1.206823 -0.401536
v 0.197441 1.241455 -0.435824
v 0.189728 1.247972 -0.426538
v 0.191896 1.258305 -0.417554
v 0.200396 1.264519 -0.415008
v 0.213752 1.265503 -0.419403
v 0.223320 1.260498 -0.428014
v 0.228221 1.207616 -0.400893
v 0.216470 1.245742 -0.439353
v 0.167940 1.296502 -0.454717
v 0.166646 1.291682 -0.460117
v 0.168767 1.290978 -0.465997
v 0.178035 1.299083 -0.461166
v 0.175086 1.301220 -0.456948
vt 0.272208 0.483425
vt 0.224680 0.562770
vt 0.180067 0.510056
vt 0.208717 0.454350
vt 0.325644 0.508878
vt 0.265578 0.617792
vt 0.304694 0.386201
vt 0.248576 0.363611
vt 0.093032 0.399880
vt 0.156711 0.428704
vt 0.132251 0.491508
vt 0.066549 0.494449
vt 0.356628 0.833850
vt 0.414170 0.774236
vt 0.429971 0.849100
vt 0.420967 0.420442
vt 0.396910 0.536811
vt 0.354266 0.403205
vt 0.478114 0.549427
vt 0.461767 0.685357
vt 0.351657 0.681237
vt 0.037228 0.375003
vt 0.001945 0.503428
vt 0.205228 0.341358
vt 0.290818 0.272284
vt 0.256107 0.253654
vt 0.336202 0.291012
vt 0.109879 0.279157
vt 0.153615 0.310233
vt 0.178583 0.198549
vt 0.214725 0.226696
vt 0.492673 0.427879
vt 0.435477 0.316018
vt 0.377712 0.304665
vt 0.331200 0.187441
vt 0.304391 0.172673
vt 0.365940 0.201407
vt 0.492600 0.215759
vt 0.498055 0.318030
vt 0.443565 0.218005
vt 0.397853 0.211313
vt 0.272976 0.150430
vt 0.351537 0.098001
vt 0.330260 0.081489
vt 0.369694 0.109240
vt 0.392093 0.119781
vt 0.413364 0.126943
vt 0.446457 0.129384
vt 0.478475 0.122947
vt 0.246016 0.126818
vt 0.406858 0.026503
vt 0.411175 0.030548
vt 0.416836 0.033088
vt 0.423645 0.034435
vt 0.441943 0.017375
vt 0.434551 0.025167
vt 0.401794 0.015752
vt 0.308602 0.781162
vt 0.480775 0.817082
vt 0.498055 0.746277
vt 0.419017 0.018739
vt 0.401434 0.001945
vt 0.312702 0.064633
vt 0.770255 0.506292
vt 0.706764 0.535367
vt 0.678114 0.479660
vt 0.722727 0.426946
vt 0.763624 0.371924
vt 0.823691 0.480839
vt 0.802740 0.603515
vt 0.746623 0.626105
vt 0.591079 0.589837
vt 0.564595 0.495267
vt 0.630299 0.498209
vt 0.654757 0.561013
vt 0.854675 0.155867
vt 0.928018 0.140617
vt 0.912217 0.215481
vt 0.919014 0.569274
vt 0.852313 0.586512
vt 0.894956 0.452905
vt 0.849703 0.308479
vt 0.959813 0.304360
vt 0.976161 0.440290
vt 0.535275 0.614713
vt 0.499992 0.486289
vt 0.703274 0.648358
vt 0.788865 0.717432
vt 0.754153 0.736062
vt 0.834248 0.698705
vt 0.607926 0.710559
vt 0.651662 0.679484
vt 0.676630 0.791168
vt 0.712771 0.763021
vt 0.990719 0.561838
vt 0.933523 0.673699
vt 0.875758 0.685052
vt 0.829247 0.802276
vt 0.802438 0.817043
vt 0.863987 0.788309
vt 0.990647 0.773958
vt 0.941612 0.771712
vt 0.996102 0.671687
vt 0.895900 0.778404
vt 0.771023 0.839287
vt 0.849583 0.891716
vt 0.828307 0.908228
vt 0.867741 0.880477
vt 0.890139 0.869936
vt 0.911411 0.862773
vt 0.944504 0.860333
vt 0.976522 0.866769
vt 0.744063 0.862899
vt 0.909222 0.959169
vt 0.904905 0.963214
vt 0.914883 0.956629
vt 0.921692 0.955282
vt 0.939990 0.972343
vt 0.932598 0.964550
vt 0.899841 0.973965
vt 0.806649 0.208555
vt 0.978822 0.172636
vt 0.996102 0.243440
vt 0.917064 0.970979
vt 0.899481 0.987772
vt 0.810749 0.925084
vn -0.3894 0.9206 -0.0290
vn -0.4656 0.8667 -0.1790
vn -0.3858 0.9223 -0.0226
vn -0.7786 0.5667 0.2696
vn -0.7810 0.5651 0.2659
vn -0.8119 0.5421 0.2167
vn -0.2556 0.9420 0.2173
vn -0.2540 0.9417 0.2209
vn 0.7478 0.2820 -0.6011
vn 0.7526 0.2837 -0.5942
vn 0.6473 0.2453 -0.7217
vn -0.0032 0.9308 0.3656
vn 0.5744 0.7814 0.2439
vn 0.1861 0.9512 -0.2461
vn -0.8474 -0.4934 0.1964
vn -0.7073 -0.5056 0.4941
vn -0.7115 -0.5067 0.4868
vn -0.8491 -0.4920 0.1921
vn 0.1809 -0.9815 0.0630
vn 0.1785 -0.9822 0.0589
vn 0.2833 -0.9273 0.2448
vn 0.7599 -0.4687 -0.4505
vn 0.7597 -0.4682 -0.4513
vn 0.7629 -0.4768 -0.4366
vn -0.7271 0.5953 0.3419
vn -0.7283 0.5948 0.3403
vn 0.4489 0.8903 -0.0764
vn 0.2727 0.8755 -0.3989
vn 0.2704 0.8747 -0.4023
vn 0.4483 0.8905 -0.0779
vn 0.5338 0.8342 0.1383
vn 0.5338 0.8342 0.1385
vn -0.1903 0.9147 0.3565
vn -0.1895 0.9142 0.3583
vn 0.7634 -0.4479 -0.4654
vn 0.7638 -0.4472 -0.4654
vn -0.5925 -0.4702 0.6541
vn 0.7795 -0.4278 -0.4576
vn 0.7799 -0.4274 -0.4572
vn 0.0251 -0.9698 -0.2425
vn 0.0240 -0.9691 -0.2457
vn 0.8764 0.3082 -0.3701
vn 0.8785 0.3078 -0.3654
vn -0.9162 -0.3998 -0.0272
vn -0.9167 -0.3986 -0.0296
vn 0.5858 0.7224 0.3673
vn 0.5860 0.7215 0.3688
vn -0.1513 0.8689 0.4713
vn -0.1509 0.8679 0.4733
vn -0.7027 0.6172 0.3539
vn -0.7033 0.6162 0.3546
vn -0.0415 -0.7766 -0.6286
vn -0.0314 -0.8927 -0.4496
vn -0.0310 -0.8939 -0.4471
vn -0.0417 -0.7786 -0.6261
vn -0.9318 -0.2346 -0.2768
vn -0.9320 -0.2360 -0.2751
vn 0.9849 0.1730 0.0061
vn 0.9412 0.2740 -0.1976
vn 0.9405 0.2748 -0.2000
vn 0.9846 0.1745 0.0036
vn 0.9629 -0.0369 0.2672
vn 0.9635 -0.0352 0.2655
vn 0.5806 0.5208 0.6258
vn 0.5791 0.5131 0.6335
vn -0.1440 0.8138 0.5630
vn -0.1451 0.8113 0.5664
vn -0.6808 0.6560 0.3257
vn -0.6797 0.6579 0.3243
vn -0.8112 0.0133 -0.5846
vn -0.8099 0.0148 -0.5864
vn -0.0424 -0.6051 -0.7950
vn -0.0435 -0.5908 -0.8056
vn 0.7995 -0.4408 -0.4080
vn 0.7999 -0.4417 -0.4063
vn 0.5443 0.3777 0.7491
vn -0.1543 0.7878 0.5963
vn -0.5911 0.7954 0.1340
vn -0.6354 0.7371 0.2300
vn -0.6303 0.7451 0.2180
vn -0.0524 -0.4652 -0.8837
vn 0.9006 -0.1728 0.3988
vn -0.6504 0.1655 -0.7413
vn 0.2684 0.4873 0.8310
vn 0.4502 0.8285 -0.3330
vn 0.7452 0.2316 0.6253
vn 0.8529 0.3021 0.4257
vn 0.8765 0.4800 0.0366
vn -0.0151 0.8612 0.5081
vn 0.5237 0.6883 -0.5019
vn 0.7297 0.5924 -0.3415
vn 0.7317 0.5937 -0.3349
vn 0.2314 0.7286 -0.6446
vn 0.2623 0.7145 -0.6486
vn 0.7312 0.5816 -0.3565
vn 0.3785 0.7570 -0.5326
vn 0.5956 0.6873 -0.4158
vn 0.3147 0.7172 -0.6218
vn 0.7984 -0.5219 -0.3002
vn 0.7972 -0.5270 -0.2946
vn 0.7782 -0.5862 -0.2255
vn 0.3894 0.9206 -0.0290
vn 0.3858 0.9223 -0.0226
vn 0.4656 0.8667 -0.1790
vn 0.7786 0.5667 0.2696
vn 0.8119 0.5421 0.2167
vn 0.7810 0.5651 0.2659
vn 0.2556 0.9420 0.2173
vn 0.2540 0.9417 0.2209
vn -0.7478 0.2820 -0.6011
vn -0.6473 0.2453 -0.7217
vn -0.7526 0.2837 -0.5942
vn 0.0032 0.9308 0.3656
vn -0.1861 0.9512 -0.2461
vn -0.5744 0.7814 0.2439
vn 0.8474 -0.4934 0.1964
vn 0.8491 -0.4920 0.1921
vn 0.7115 -0.5067 0.4868
vn 0.7073 -0.5056 0.4941
vn -0.1809 -0.9815 0.0630
vn -0.2833 -0.9273 0.2448
vn -0.1785 -0.9822 0.0589
vn -0.7599 -0.4687 -0.4505
vn -0.7629 -0.4768 -0.4366
vn -0.7597 -0.4682 -0.4513
vn 0.7271 0.5953 0.3419
vn 0.7283 0.5948 0.3403
vn -0.4489 0.8903 -0.0764
vn -0.4483 0.8905 -0.0779
vn -0.2704 0.8747 -0.4023
vn -0.2727 0.8755 -0.3989
vn -0.5338 0.8342 0.1383
vn -0.5338 0.8342 0.1385
vn 0.1903 0.9147 0.3565
vn 0.1895 0.9142 0.3583
vn -0.7634 -0.4479 -0.4654
vn -0.7638 -0.4472 -0.4654
vn 0.5925 -0.4702 0.6541
vn -0.7795 -0.4278 -0.4576
vn -0.7799 -0.4274 -0.4572
vn -0.0251 -0.9698 -0.2425
vn -0.0240 -0.9691 -0.2457
vn -0.8764 0.3082 -0.3701
vn -0.8785 0.3078 -0.3654
vn 0.9162 -0.3998 -0.0272
vn 0.9167 -0.3986 -0.0296
vn -0.5858 0.7224 0.3673
vn -0.5860 0.7215 0.3688
vn 0.1513 0.8689 0.4713
vn 0.1509 0.8679 0.4733
vn 0.7033 0.6162 0.3546
vn 0.7027 0.6172 0.3539
vn 0.0415 -0.7766 -0.6286
vn 0.0417 -0.7786 -0.6261
vn 0.0310 -0.8939 -0.4471
vn 0.0314 -0.8927 -0.4496
vn 0.9320 -0.2360 -0.2751
vn 0.9318 -0.2346 -0.2768
vn -0.9849 0.1730 0.0061
vn -0.9846 0.1745 0.0036
vn -0.9405 0.2748 -0.2000
vn -0.9412 0.2740 -0.1976
vn -0.9629 -0.0369 0.2672
vn -0.9635 -0.0352 0.2655
vn -0.5806 0.5208 0.6258
vn -0.5791 0.5131 0.6335
vn 0.1440 0.8138 0.5630
vn 0.1451 0.8113 0.5664
vn 0.6808 0.6560 0.3257
vn 0.6797 0.6579 0.3243
vn 0.8112 0.0133 -0.5846
vn 0.8099 0.0148 -0.5864
vn 0.0424 -0.6051 -0.7950
vn 0.0435 -0.5908 -0.8056
vn -0.7995 -0.4408 -0.4080
vn -0.7999 -0.4417 -0.4063
vn -0.5443 0.3777 0.7491
vn 0.1543 0.7878 0.5963
vn 0.5911 0.7954 0.1340
vn 0.6303 0.7451 0.2180
vn 0.6354 0.7371 0.2300
vn 0.0525 -0.4652 -0.8837
vn -0.9006 -0.1728 0.3988
vn 0.6504 0.1655 -0.7413
vn -0.2684 0.4873 0.8310
vn -0.4502 0.8285 -0.3330
vn -0.7452 0.2316 0.6253
vn -0.8529 0.3021 0.4257
vn -0.8765 0.4800 0.0366
vn 0.0151 0.8612 0.5081
vn -0.5237 0.6883 -0.5019
vn -0.7317 0.5937 -0.3349
vn -0.7297 0.5924 -0.3415
vn -0.2623 0.7145 -0.6486
vn -0.2314 0.7286 -0.6446
vn -0.7312 0.5816 -0.3565
vn -0.5956 0.6873 -0.4158
vn -0.3785 0.7570 -0.5326
vn -0.3147 0.7172 -0.6218
vn -0.7984 -0.5219 -0.3002
vn -0.7972 -0.5270 -0.2946
vn -0.7782 -0.5862 -0.2255
usemtl None
s 1
f 9/1/1 10/2/2 4/3/2 8/4/3
f 9/1/4 19/5/5 11/6/6 10/2/6
f 18/7/7 9/1/1 8/4/3 17/8/8
f 15/9/9 7/10/10 6/11/11 14/12/11
f 10/13/12 5/14/13 4/15/14
f 29/16/15 20/17/16 19/5/17 28/18/18
f 20/17/19 21/19/20 13/20/21 12/21/21
f 21/22/22 15/9/23 14/12/24 13/23/24
f 18/7/25 28/18/26 19/5/5 9/1/4
f 17/8/27 8/4/28 7/10/29 16/24/30
f 26/25/31 17/8/27 16/24/30 25/26/32
f 27/27/33 18/7/7 17/8/8 26/25/34
f 22/28/35 23/29/36 15/9/23 21/22/22
f 19/5/17 20/17/16 12/21/37 11/6/37
f 30/30/38 24/31/39 23/29/36 22/28/35
f 29/16/40 22/32/41 21/19/20 20/17/19
f 23/29/42 16/24/43 7/10/10 15/9/9
f 37/33/44 29/16/15 28/18/18 36/34/45
f 33/35/46 26/25/31 25/26/32 32/36/47
f 34/37/48 27/27/33 26/25/34 33/35/49
f 28/18/26 18/7/25 27/27/50 36/34/51
f 38/38/52 30/39/53 37/33/54 45/40/55
f 37/33/54 30/39/53 22/32/41 29/16/40
f 37/33/44 36/34/45 35/41/56 45/40/57
f 32/36/58 25/26/59 24/31/60 31/42/61
f 41/43/62 32/36/58 31/42/61 40/44/63
f 42/45/64 33/35/46 32/36/47 41/43/65
f 43/46/66 34/37/48 33/35/49 42/45/67
f 35/41/68 36/34/51 27/27/50 34/37/69
f 44/47/70 46/48/71 45/40/57 35/41/56
f 46/48/72 39/49/73 38/38/52 45/40/55
f 38/50/74 31/42/75 24/31/39 30/30/38
f 41/43/65 47/51/76 1/52/76 42/45/64
f 51/53/77 43/46/66 42/45/67 1/52/77
f 50/54/78 44/47/79 43/46/80 51/53/78
f 44/47/79 35/41/68 34/37/69 43/46/80
f 49/55/81 39/49/73 46/48/72 2/56/81
f 24/31/60 25/26/59 16/24/43 23/29/42
f 40/44/63 48/57/82 47/51/82 41/43/62
f 44/47/70 50/54/83 2/56/83 46/48/71
f 11/58/84 12/21/84 5/14/84
f 5/14/13 6/59/85 4/15/14
f 12/21/86 13/20/87 5/14/13
f 5/14/13 14/60/88 6/59/85
f 10/13/12 11/58/89 5/14/13
f 3/61/90 48/57/91 49/62/92
f 3/61/90 49/55/93 2/56/94
f 47/51/95 48/57/91 3/61/90
f 13/20/87 14/60/88 5/14/13
f 3/61/90 51/53/96 1/52/97
f 50/54/98 51/53/96 3/61/90
f 3/61/90 2/56/94 50/54/98
f 1/52/97 47/51/95 3/61/90
f 39/63/99 40/44/100 31/42/75 38/50/74
f 40/44/100 39/63/99 49/62/101 48/57/101
f 7/10/29 8/4/28 4/3/14 6/11/85
f 60/64/102 59/65/103 55/66/104 61/67/104
f 60/64/105 61/67/106 62/68/106 70/69/107
f 69/70/108 68/71/109 59/65/103 60/64/102
f 66/72/110 65/73/111 57/74/111 58/75/112
f 61/76/113 55/77/114 56/78/115
f 80/79/116 79/80/117 70/69/118 71/81/119
f 71/81/120 63/82/121 64/83/121 72/84/122
f 72/85/123 64/86/124 65/73/124 66/72/125
f 69/70/126 60/64/105 70/69/107 79/80/127
f 68/71/128 67/87/129 58/75/130 59/65/131
f 77/88/132 76/89/133 67/87/129 68/71/128
f 78/90/134 77/88/135 68/71/109 69/70/108
f 73/91/136 72/85/123 66/72/125 74/92/137
f 70/69/118 62/68/138 63/82/138 71/81/119
f 81/93/139 73/91/136 74/92/137 75/94/140
f 80/79/141 71/81/120 72/84/122 73/95/142
f 74/92/143 66/72/110 58/75/112 67/87/144
f 88/96/145 87/97/146 79/80/117 80/79/116
f 84/98/147 83/99/148 76/89/133 77/88/132
f 85/100/149 84/98/150 77/88/135 78/90/134
f 79/80/127 87/97/151 78/90/152 69/70/126
f 89/101/153 96/102/154 88/96/155 81/103/156
f 88/96/155 80/79/141 73/95/142 81/103/156
f 88/96/145 96/102/157 86/104/158 87/97/146
f 83/99/159 82/105/160 75/94/161 76/89/162
f 92/106/163 91/107/164 82/105/160 83/99/159
f 93/108/165 92/106/166 83/99/148 84/98/147
f 94/109/167 93/108/168 84/98/150 85/100/149
f 86/104/169 85/100/170 78/90/152 87/97/151
f 95/110/171 86/104/158 96/102/157 97/111/172
f 97/111/173 96/102/154 89/101/153 90/112/174
f 89/113/175 81/93/139 75/94/140 82/105/176
f 92/106/166 93/108/165 52/114/177 98/115/177
f 102/116/178 52/114/178 93/108/168 94/109/167
f 101/117/179 102/116/179 94/109/180 95/110/181
f 95/110/181 94/109/180 85/100/170 86/104/169
f 100/118/182 53/119/182 97/111/173 90/112/174
f 75/94/161 74/92/143 67/87/144 76/89/162
f 91/107/164 92/106/163 98/115/183 99/120/183
f 95/110/171 97/111/172 53/119/184 101/117/184
f 62/121/185 56/78/185 63/82/185
f 56/78/115 55/77/114 57/122/186
f 63/82/187 56/78/115 64/83/188
f 56/78/115 57/122/186 65/123/189
f 61/76/113 56/78/115 62/121/190
f 54/124/191 100/125/192 99/120/193
f 54/124/191 53/119/194 100/118/195
f 98/115/196 54/124/191 99/120/193
f 64/83/188 56/78/115 65/123/189
f 54/124/191 52/114/197 102/116/198
f 101/117/199 54/124/191 102/116/198
f 54/124/191 101/117/199 53/119/194
f 52/114/197 54/124/191 98/115/196
f 90/126/200 89/113/175 82/105/176 91/107/201
f 91/107/201 99/120/202 100/125/202 90/126/200
f 58/75/130 57/74/186 55/66/114 59/65/131
