# Blender v2.91.0 OBJ File: 'Pesadilla_mod_V8_LowPoly.blend'
# www.blender.org
mtllib Rib3_low.mtl
o Rib3_low_mesh.003
v -0.090833 1.027454 -0.355871
v -0.095318 1.033229 -0.350709
v -0.092799 1.020828 -0.363001
v -0.081426 1.024715 -0.357087
v -0.088162 1.033295 -0.349429
v -0.099734 1.029487 -0.355294
v -0.098679 1.024365 -0.360370
v -0.082503 1.029819 -0.352034
v -0.085722 1.020992 -0.361633
v -0.100316 0.983358 -0.326415
v -0.109164 0.989574 -0.323700
v -0.110674 0.999406 -0.318673
v -0.103875 1.007180 -0.314182
v -0.092789 1.008247 -0.312960
v -0.083899 1.002034 -0.315667
v -0.082411 0.992052 -0.320802
v -0.089281 0.984344 -0.325247
v -0.100732 0.966952 -0.289577
v -0.111916 0.975079 -0.287184
v -0.113977 0.988769 -0.285032
v -0.105696 1.000118 -0.284358
v -0.091777 1.002405 -0.285588
v -0.080546 0.994306 -0.287979
v -0.078513 0.980362 -0.290168
v -0.086926 0.969120 -0.290813
v -0.078961 0.965284 -0.254186
v -0.094770 0.962726 -0.249247
v -0.108256 0.972467 -0.246968
v -0.111517 0.988796 -0.248685
v -0.102638 1.002287 -0.253203
v -0.086702 1.004981 -0.258017
v -0.073156 0.995259 -0.260329
v -0.069942 0.978745 -0.258729
v -0.064974 0.971963 -0.219220
v -0.081176 0.970471 -0.209119
v -0.096748 0.981843 -0.206369
v -0.102142 0.999041 -0.212715
v -0.094403 1.012429 -0.224122
v -0.077891 1.013929 -0.234089
v -0.062740 1.002920 -0.236785
v -0.057219 0.985401 -0.230663
v -0.039526 1.000225 -0.210892
v -0.043277 0.989977 -0.192303
v -0.039519 1.036095 -0.186521
v -0.057942 0.991870 -0.176701
v -0.075143 1.005037 -0.173225
v -0.084158 1.021274 -0.184050
v -0.080091 1.031216 -0.202613
v -0.065332 1.029255 -0.217831
v -0.048483 1.016487 -0.221189
v -0.018669 1.021005 -0.202857
v -0.016949 1.015815 -0.180572
v -0.028668 1.022484 -0.160520
v -0.047698 1.038064 -0.156429
v -0.060971 1.051816 -0.170874
v -0.061399 1.055970 -0.193574
v -0.049776 1.049057 -0.211665
v -0.032019 1.034552 -0.215681
v 0.090833 1.027454 -0.355871
v 0.095318 1.033229 -0.350709
v 0.092799 1.020828 -0.363001
v 0.081426 1.024715 -0.357087
v 0.088162 1.033295 -0.349429
v 0.099734 1.029487 -0.355294
v 0.098679 1.024365 -0.360370
v 0.082503 1.029819 -0.352034
v 0.085722 1.020992 -0.361633
v 0.100316 0.983358 -0.326415
v 0.109164 0.989574 -0.323700
v 0.110674 0.999406 -0.318673
v 0.103875 1.007180 -0.314182
v 0.092789 1.008247 -0.312960
v 0.083899 1.002034 -0.315667
v 0.082411 0.992052 -0.320802
v 0.089281 0.984344 -0.325247
v 0.100732 0.966952 -0.289577
v 0.111916 0.975079 -0.287184
v 0.113977 0.988769 -0.285032
v 0.105696 1.000118 -0.284358
v 0.091777 1.002405 -0.285588
v 0.080546 0.994306 -0.287979
v 0.078513 0.980362 -0.290168
v 0.086926 0.969120 -0.290813
v 0.078961 0.965284 -0.254186
v 0.094770 0.962726 -0.249247
v 0.108256 0.972467 -0.246968
v 0.111517 0.988796 -0.248685
v 0.102638 1.002287 -0.253203
v 0.086702 1.004981 -0.258017
v 0.073156 0.995259 -0.260329
v 0.069942 0.978745 -0.258729
v 0.064974 0.971963 -0.219220
v 0.081176 0.970471 -0.209119
v 0.096748 0.981843 -0.206369
v 0.102142 0.999041 -0.212715
v 0.094403 1.012429 -0.224122
v 0.077891 1.013929 -0.234089
v 0.062740 1.002920 -0.236785
v 0.057219 0.985401 -0.230663
v 0.039526 1.000225 -0.210892
v 0.043277 0.989977 -0.192303
v 0.039519 1.036095 -0.186521
v 0.057942 0.991870 -0.176701
v 0.075143 1.005037 -0.173225
v 0.084158 1.021274 -0.184050
v 0.080091 1.031216 -0.202613
v 0.065332 1.029255 -0.217831
v 0.048483 1.016487 -0.221189
v 0.018669 1.021005 -0.202857
v 0.016949 1.015815 -0.180572
v 0.028668 1.022484 -0.160520
v 0.047698 1.038064 -0.156429
v 0.060971 1.051816 -0.170874
v 0.061399 1.055970 -0.193574
v 0.049776 1.049057 -0.211665
v 0.032019 1.034552 -0.215681
vt 0.315569 0.594192
vt 0.311546 0.583705
vt 0.341287 0.527382
vt 0.362303 0.537432
vt 0.285602 0.597020
vt 0.303857 0.631495
vt 0.222230 0.549607
vt 0.239811 0.537975
vt 0.300489 0.578354
vt 0.294758 0.579852
vt 0.276018 0.523823
vt 0.296330 0.520734
vt 0.289318 0.584744
vt 0.257740 0.529532
vt 0.382279 0.550589
vt 0.306051 0.579582
vt 0.318825 0.521540
vt 0.236537 0.464228
vt 0.262961 0.459057
vt 0.292305 0.456416
vt 0.325373 0.457230
vt 0.359358 0.462718
vt 0.391592 0.471963
vt 0.419550 0.483302
vt 0.186125 0.483589
vt 0.211390 0.472301
vt 0.188698 0.399744
vt 0.219807 0.391860
vt 0.252277 0.387347
vt 0.288510 0.384682
vt 0.330184 0.385118
vt 0.374290 0.389852
vt 0.415796 0.399583
vt 0.451494 0.411665
vt 0.156657 0.410933
vt 0.169737 0.321458
vt 0.205800 0.314009
vt 0.242531 0.311116
vt 0.284115 0.309908
vt 0.333612 0.311428
vt 0.386522 0.315609
vt 0.437685 0.324719
vt 0.481371 0.335319
vt 0.131930 0.332329
vt 0.108598 0.248049
vt 0.153586 0.236611
vt 0.195818 0.230047
vt 0.238670 0.229623
vt 0.285740 0.234309
vt 0.338479 0.241825
vt 0.394963 0.246060
vt 0.449700 0.248860
vt 0.500080 0.250539
vt 0.081133 0.160217
vt 0.136425 0.138632
vt 0.196011 0.133079
vt 0.250561 0.143697
vt 0.299537 0.161697
vt 0.347451 0.177509
vt 0.398436 0.184336
vt 0.447392 0.178796
vt 0.495396 0.167601
vt 0.133437 0.028512
vt 0.158795 0.081618
vt 0.082086 0.084268
vt 0.079968 0.009649
vt 0.029382 0.032442
vt 0.029509 0.137588
vt 0.008038 0.085490
vt 0.300796 0.588057
vt 0.678331 0.947477
vt 0.631140 0.891097
vt 0.652073 0.880877
vt 0.682270 0.936958
vt 0.708320 0.950063
vt 0.753632 0.890650
vt 0.771307 0.902139
vt 0.690345 0.984685
vt 0.693283 0.931518
vt 0.696976 0.873866
vt 0.717312 0.876791
vt 0.699025 0.932970
vt 0.704505 0.937818
vt 0.735636 0.882352
vt 0.611271 0.904415
vt 0.674488 0.874854
vt 0.687731 0.932791
vt 0.756310 0.816878
vt 0.729845 0.811921
vt 0.700481 0.809518
vt 0.667420 0.810599
vt 0.633480 0.816362
vt 0.601322 0.825867
vt 0.573457 0.837432
vt 0.806877 0.835831
vt 0.781521 0.824748
vt 0.803626 0.752010
vt 0.772454 0.744378
vt 0.739949 0.740127
vt 0.703695 0.737756
vt 0.662026 0.738528
vt 0.617961 0.743619
vt 0.576534 0.753685
vt 0.540935 0.766055
vt 0.835756 0.762940
vt 0.821954 0.673573
vt 0.785831 0.666416
vt 0.749078 0.663821
vt 0.707486 0.662948
vt 0.658003 0.664869
vt 0.605128 0.669478
vt 0.554041 0.679000
vt 0.510442 0.689954
vt 0.859847 0.684138
vt 0.882497 0.599672
vt 0.837418 0.588599
vt 0.795134 0.582376
vt 0.752280 0.582299
vt 0.705249 0.587365
vt 0.652573 0.595307
vt 0.596125 0.599999
vt 0.541413 0.603241
vt 0.491048 0.605328
vt 0.909251 0.511621
vt 0.853786 0.490484
vt 0.794157 0.485413
vt 0.739694 0.496471
vt 0.690866 0.514867
vt 0.643081 0.531066
vt 0.592153 0.538305
vt 0.543154 0.533161
vt 0.495061 0.522355
vt 0.855883 0.380343
vt 0.907684 0.435683
vt 0.830956 0.433653
vt 0.909198 0.361049
vt 0.959966 0.383431
vt 0.960690 0.488575
vt 0.981739 0.436306
vt 0.693054 0.941223
vn 0.9895 0.0937 0.1104
vn 0.9913 0.1303 0.0213
vn 0.9911 0.1322 0.0166
vn 0.1421 -0.7052 -0.6947
vn 0.1298 -0.8209 -0.5561
vn 0.1297 -0.8218 -0.5549
vn -0.7823 0.5771 0.2344
vn -0.7904 0.5898 0.1654
vn -0.7901 0.5892 0.1689
vn -0.5711 -0.5099 -0.6433
vn -0.5989 -0.6329 -0.4907
vn -0.5985 -0.6301 -0.4948
vn 0.7930 -0.4649 -0.3938
vn 0.7881 -0.5077 -0.3482
vn 0.7878 -0.5094 -0.3463
vn 0.5988 0.6239 0.5021
vn 0.6101 0.7215 0.3275
vn 0.6101 0.7235 0.3231
vn -0.9891 -0.1456 -0.0218
vn -0.9892 -0.1442 -0.0261
vn -0.9792 -0.0482 -0.1973
vn -0.9797 -0.0515 -0.1936
vn -0.1271 0.8232 0.5533
vn -0.1307 0.9140 0.3841
vn -0.1306 0.9121 0.3887
vn -0.8075 0.5852 0.0740
vn -0.8067 0.5861 0.0757
vn -0.1552 0.9851 0.0740
vn -0.1541 0.9848 0.0805
vn 0.5823 0.8127 -0.0199
vn 0.5822 0.8128 -0.0208
vn 0.9723 0.1679 -0.1624
vn 0.9715 0.1680 -0.1673
vn 0.7787 -0.5668 -0.2688
vn 0.7786 -0.5679 -0.2669
vn 0.1236 -0.9555 -0.2679
vn 0.1239 -0.9567 -0.2635
vn -0.6038 -0.7802 -0.1632
vn -0.6039 -0.7799 -0.1644
vn -0.5590 -0.8114 0.1707
vn -0.5590 -0.8114 0.1706
vn -0.8270 0.5599 0.0514
vn -0.8265 0.5605 0.0512
vn -0.2101 0.9639 -0.1637
vn -0.2086 0.9650 -0.1589
vn 0.5146 0.7941 -0.3234
vn 0.5148 0.7942 -0.3230
vn 0.9257 0.1500 -0.3474
vn 0.9242 0.1491 -0.3515
vn 0.7749 -0.5932 -0.2181
vn 0.7749 -0.5937 -0.2171
vn 0.1567 -0.9876 -0.0027
vn 0.1577 -0.9875 0.0024
vn -0.4434 -0.7317 0.5177
vn -0.4429 -0.7312 0.5188
vn -0.9659 -0.1738 0.1921
vn -0.9668 -0.1739 0.1874
vn -0.8879 -0.1148 0.4454
vn -0.8904 -0.1170 0.4399
vn -0.8349 0.5454 0.0749
vn -0.8349 0.5455 0.0738
vn -0.3082 0.8753 -0.3727
vn -0.3047 0.8790 -0.3669
vn 0.3813 0.6789 -0.6275
vn 0.3823 0.6799 -0.6258
vn 0.8273 0.0629 -0.5583
vn 0.8237 0.0596 -0.5638
vn 0.7652 -0.6118 -0.2006
vn 0.7647 -0.6124 -0.2007
vn 0.2387 -0.9396 0.2452
vn 0.2414 -0.9374 0.2509
vn 0.3846 -0.8078 0.4467
vn 0.3869 -0.8056 0.4487
vn -0.7386 0.0514 0.6722
vn -0.7399 0.0498 0.6709
vn -0.8243 0.5557 0.1084
vn -0.8247 0.5553 0.1079
vn -0.4569 0.7115 -0.5340
vn -0.4541 0.7147 -0.5320
vn 0.1509 0.4363 -0.8871
vn 0.1515 0.4369 -0.8866
vn 0.6477 -0.1211 -0.7522
vn 0.6459 -0.1231 -0.7535
vn 0.7436 -0.6363 -0.2051
vn 0.7431 -0.6369 -0.2053
vn 0.4674 -0.7164 0.5179
vn -0.2345 -0.5216 0.8203
vn -0.2337 -0.5207 0.8211
vn -0.1089 -0.3791 0.9189
vn -0.6412 0.1565 0.7513
vn -0.8142 0.5676 0.1221
vn -0.5339 0.6101 -0.5854
vn 0.0172 0.2812 -0.9595
vn 0.5348 -0.2304 -0.8130
vn 0.7302 -0.6503 -0.2094
vn 0.6445 0.7542 0.1259
vn 0.1175 0.7111 -0.6933
vn 0.1175 0.7110 -0.6933
vn -0.9634 0.0157 -0.2678
vn -0.9895 0.0937 0.1104
vn -0.9911 0.1322 0.0166
vn -0.9913 0.1303 0.0213
vn -0.1421 -0.7052 -0.6947
vn -0.1297 -0.8218 -0.5549
vn -0.1298 -0.8209 -0.5561
vn 0.7823 0.5771 0.2344
vn 0.7901 0.5892 0.1689
vn 0.7904 0.5898 0.1654
vn 0.5711 -0.5099 -0.6433
vn 0.5985 -0.6301 -0.4948
vn 0.5989 -0.6329 -0.4907
vn -0.7930 -0.4649 -0.3938
vn -0.7878 -0.5094 -0.3463
vn -0.7881 -0.5077 -0.3482
vn -0.5988 0.6239 0.5021
vn -0.6101 0.7235 0.3231
vn -0.6101 0.7215 0.3275
vn 0.9891 -0.1456 -0.0218
vn 0.9797 -0.0515 -0.1936
vn 0.9792 -0.0482 -0.1973
vn 0.9892 -0.1442 -0.0261
vn 0.1271 0.8232 0.5533
vn 0.1306 0.9121 0.3887
vn 0.1307 0.9140 0.3841
vn 0.8075 0.5852 0.0740
vn 0.8067 0.5861 0.0757
vn 0.1552 0.9851 0.0740
vn 0.1541 0.9848 0.0805
vn -0.5823 0.8127 -0.0199
vn -0.5822 0.8128 -0.0208
vn -0.9723 0.1679 -0.1624
vn -0.9715 0.1680 -0.1673
vn -0.7787 -0.5668 -0.2688
vn -0.7786 -0.5679 -0.2669
vn -0.1236 -0.9555 -0.2679
vn -0.1239 -0.9567 -0.2635
vn 0.6038 -0.7802 -0.1632
vn 0.6039 -0.7799 -0.1644
vn 0.5590 -0.8114 0.1707
vn 0.5590 -0.8114 0.1706
vn 0.8270 0.5599 0.0514
vn 0.8265 0.5605 0.0512
vn 0.2101 0.9639 -0.1637
vn 0.2086 0.9650 -0.1589
vn -0.5146 0.7941 -0.3234
vn -0.5148 0.7942 -0.3230
vn -0.9257 0.1500 -0.3474
vn -0.9242 0.1491 -0.3515
vn -0.7749 -0.5932 -0.2181
vn -0.7749 -0.5937 -0.2171
vn -0.1567 -0.9876 -0.0027
vn -0.1577 -0.9875 0.0024
vn 0.4434 -0.7317 0.5177
vn 0.4429 -0.7312 0.5188
vn 0.9659 -0.1738 0.1921
vn 0.9668 -0.1739 0.1874
vn 0.8879 -0.1148 0.4454
vn 0.8904 -0.1170 0.4399
vn 0.8349 0.5454 0.0749
vn 0.8349 0.5455 0.0738
vn 0.3082 0.8753 -0.3727
vn 0.3047 0.8790 -0.3669
vn -0.3813 0.6789 -0.6275
vn -0.3823 0.6799 -0.6258
vn -0.8273 0.0629 -0.5583
vn -0.8237 0.0596 -0.5638
vn -0.7652 -0.6118 -0.2006
vn -0.7647 -0.6124 -0.2007
vn -0.2387 -0.9396 0.2452
vn -0.2414 -0.9374 0.2509
vn -0.3846 -0.8078 0.4467
vn -0.3869 -0.8056 0.4487
vn 0.7386 0.0514 0.6722
vn 0.7399 0.0498 0.6709
vn 0.8243 0.5557 0.1084
vn 0.8247 0.5553 0.1079
vn 0.4569 0.7115 -0.5340
vn 0.4541 0.7147 -0.5320
vn -0.1509 0.4363 -0.8871
vn -0.1515 0.4369 -0.8866
vn -0.6477 -0.1211 -0.7522
vn -0.6459 -0.1231 -0.7535
vn -0.7436 -0.6363 -0.2051
vn -0.7431 -0.6369 -0.2053
vn -0.4674 -0.7164 0.5179
vn 0.2345 -0.5216 0.8203
vn 0.2337 -0.5207 0.8211
vn 0.1089 -0.3791 0.9189
vn 0.6412 0.1565 0.7513
vn 0.8142 0.5676 0.1221
vn 0.5339 0.6101 -0.5854
vn -0.0172 0.2812 -0.9595
vn -0.5348 -0.2304 -0.8130
vn -0.7302 -0.6503 -0.2094
vn -0.6445 0.7542 0.1259
vn -0.1175 0.7111 -0.6933
vn -0.1175 0.7110 -0.6933
vn 0.9634 0.0157 -0.2678
usemtl None
s 1
f 4/1/1 8/2/1 15/3/2 16/4/3
f 3/5/4 9/6/4 17/7/5 10/8/6
f 2/9/7 6/10/7 12/11/8 13/12/9
f 7/13/10 3/5/10 10/8/11 11/14/12
f 9/6/13 4/1/13 16/4/14 17/15/15
f 8/2/16 5/16/16 14/17/17 15/3/18
f 19/18/19 20/19/20 12/11/21 11/14/22
f 5/16/23 2/9/23 13/12/24 14/17/25
f 20/19/26 21/20/27 13/12/9 12/11/8
f 21/20/28 22/21/29 14/17/25 13/12/24
f 22/21/30 23/22/31 15/3/18 14/17/17
f 23/22/32 24/23/33 16/4/3 15/3/2
f 24/23/34 25/24/35 17/15/15 16/4/14
f 25/25/36 18/26/37 10/8/6 17/7/5
f 18/26/38 19/18/39 11/14/12 10/8/11
f 27/27/40 28/28/41 19/18/39 18/26/38
f 29/29/42 30/30/43 21/20/27 20/19/26
f 30/30/44 31/31/45 22/21/29 21/20/28
f 31/31/46 32/32/47 23/22/31 22/21/30
f 32/32/48 33/33/49 24/23/33 23/22/32
f 33/33/50 26/34/51 25/24/35 24/23/34
f 26/35/52 27/27/53 18/26/37 25/25/36
f 35/36/54 36/37/55 28/28/41 27/27/40
f 28/28/56 29/29/57 20/19/20 19/18/19
f 36/37/58 37/38/59 29/29/57 28/28/56
f 37/38/60 38/39/61 30/30/43 29/29/42
f 38/39/62 39/40/63 31/31/45 30/30/44
f 39/40/64 40/41/65 32/32/47 31/31/46
f 40/41/66 41/42/67 33/33/49 32/32/48
f 41/42/68 34/43/69 26/34/51 33/33/50
f 34/44/70 35/36/71 27/27/53 26/35/52
f 43/45/72 45/46/73 35/36/71 34/44/70
f 46/47/74 47/48/75 37/38/59 36/37/58
f 47/48/76 48/49/77 38/39/61 37/38/60
f 48/49/78 49/50/79 39/40/63 38/39/62
f 49/50/80 50/51/81 40/41/65 39/40/64
f 50/51/82 42/52/83 41/42/67 40/41/66
f 42/52/84 43/53/85 34/43/69 41/42/68
f 52/54/86 53/55/86 45/46/73 43/45/72
f 45/46/87 46/47/88 36/37/55 35/36/54
f 53/55/89 54/56/89 46/47/88 45/46/87
f 54/56/90 55/57/90 47/48/75 46/47/74
f 55/57/91 56/58/91 48/49/77 47/48/76
f 56/58/92 57/59/92 49/50/79 48/49/78
f 57/59/93 58/60/93 50/51/81 49/50/80
f 58/60/94 51/61/94 42/52/83 50/51/82
f 51/61/95 52/62/95 43/53/85 42/52/84
f 55/63/96 54/64/96 44/65/96
f 54/64/96 53/55/96 44/65/96
f 56/66/96 55/63/96 44/65/96
f 57/67/96 56/66/96 44/65/96
f 52/54/96 51/68/96 44/65/96
f 58/69/96 57/67/96 44/65/96
f 53/55/96 52/54/96 44/65/96
f 51/68/96 58/69/96 44/65/96
f 8/2/97 4/1/98 1/70/97 5/16/97
f 9/6/98 3/5/98 1/70/97 4/1/98
f 7/13/97 6/10/98 1/70/97 3/5/98
f 6/10/98 2/9/98 1/70/97
f 2/9/98 5/16/97 1/70/97
f 11/14/22 12/11/21 6/10/99 7/13/99
f 62/71/100 74/72/101 73/73/102 66/74/100
f 61/75/103 68/76/104 75/77/105 67/78/103
f 60/79/106 71/80/107 70/81/108 64/82/106
f 65/83/109 69/84/110 68/76/111 61/75/109
f 67/78/112 75/85/113 74/72/114 62/71/112
f 66/74/115 73/73/116 72/86/117 63/87/115
f 77/88/118 69/84/119 70/81/120 78/89/121
f 63/87/122 72/86/123 71/80/124 60/79/122
f 78/89/125 70/81/108 71/80/107 79/90/126
f 79/90/127 71/80/124 72/86/123 80/91/128
f 80/91/129 72/86/117 73/73/116 81/92/130
f 81/92/131 73/73/102 74/72/101 82/93/132
f 82/93/133 74/72/114 75/85/113 83/94/134
f 83/95/135 75/77/105 68/76/104 76/96/136
f 76/96/137 68/76/111 69/84/110 77/88/138
f 85/97/139 76/96/137 77/88/138 86/98/140
f 87/99/141 78/89/125 79/90/126 88/100/142
f 88/100/143 79/90/127 80/91/128 89/101/144
f 89/101/145 80/91/129 81/92/130 90/102/146
f 90/102/147 81/92/131 82/93/132 91/103/148
f 91/103/149 82/93/133 83/94/134 84/104/150
f 84/105/151 83/95/135 76/96/136 85/97/152
f 93/106/153 85/97/139 86/98/140 94/107/154
f 86/98/155 77/88/118 78/89/121 87/99/156
f 94/107/157 86/98/155 87/99/156 95/108/158
f 95/108/159 87/99/141 88/100/142 96/109/160
f 96/109/161 88/100/143 89/101/144 97/110/162
f 97/110/163 89/101/145 90/102/146 98/111/164
f 98/111/165 90/102/147 91/103/148 99/112/166
f 99/112/167 91/103/149 84/104/150 92/113/168
f 92/114/169 84/105/151 85/97/152 93/106/170
f 101/115/171 92/114/169 93/106/170 103/116/172
f 104/117/173 94/107/157 95/108/158 105/118/174
f 105/118/175 95/108/159 96/109/160 106/119/176
f 106/119/177 96/109/161 97/110/162 107/120/178
f 107/120/179 97/110/163 98/111/164 108/121/180
f 108/121/181 98/111/165 99/112/166 100/122/182
f 100/122/183 99/112/167 92/113/168 101/123/184
f 110/124/185 101/115/171 103/116/172 111/125/185
f 103/116/186 93/106/153 94/107/154 104/117/187
f 111/125/188 103/116/186 104/117/187 112/126/188
f 112/126/189 104/117/173 105/118/174 113/127/189
f 113/127/190 105/118/175 106/119/176 114/128/190
f 114/128/191 106/119/177 107/120/178 115/129/191
f 115/129/192 107/120/179 108/121/180 116/130/192
f 116/130/193 108/121/181 100/122/182 109/131/193
f 109/131/194 100/122/183 101/123/184 110/132/194
f 113/133/195 102/134/195 112/135/195
f 112/135/195 102/134/195 111/125/195
f 114/136/195 102/134/195 113/133/195
f 115/137/195 102/134/195 114/136/195
f 110/124/195 102/134/195 109/138/195
f 116/139/195 102/134/195 115/137/195
f 111/125/195 102/134/195 110/124/195
f 109/138/195 102/134/195 116/139/195
f 66/74/196 63/87/196 59/140/196 62/71/196
f 67/78/197 62/71/196 59/140/196 61/75/197
f 65/83/196 61/75/197 59/140/196 64/82/196
f 64/82/196 59/140/196 60/79/197
f 60/79/197 59/140/196 63/87/196
f 69/84/119 65/83/198 64/82/198 70/81/120
